<?xml version="1.0" encoding="UTF-8" standalone="no"?>
<!DOCTYPE svg PUBLIC "-//W3C//DTD SVG 1.1//EN"
 "http://www.w3.org/Graphics/SVG/1.1/DTD/svg11.dtd">
<!-- Generated by graphviz version 7.0.1 (20221109.1506)
 -->
<!-- Title: DB_flow Pages: 1 -->
<svg width="558pt" height="278pt"
 viewBox="0.00 0.00 558.00 278.00" xmlns="http://www.w3.org/2000/svg" xmlns:xlink="http://www.w3.org/1999/xlink">
<g id="graph0" class="graph" transform="scale(1 1) rotate(0) translate(4 274)">
<title>DB_flow</title>
<polygon fill="white" stroke="none" points="-4,4 -4,-274 554,-274 554,4 -4,4"/>
<g id="clust1" class="cluster">
<title>cluster_server</title>
<polygon fill="none" stroke="black" points="394,-41 394,-209 542,-209 542,-41 394,-41"/>
<text text-anchor="middle" x="468" y="-193.8" font-family="Times,serif" font-size="14.00">Adversary Server</text>
</g>
<g id="clust2" class="cluster">
<title>cluster_DB</title>
<polygon fill="none" stroke="black" points="402,-49 402,-178 534,-178 534,-49 402,-49"/>
<text text-anchor="middle" x="468" y="-162.8" font-family="Times,serif" font-size="14.00">Database</text>
</g>
<!-- client1 -->
<g id="node1" class="node">
<title>client1</title>
<polygon fill="none" stroke="black" points="70,-235 0,-235 0,-199 70,-199 70,-235"/>
<text text-anchor="middle" x="35" y="-213.3" font-family="Times,serif" font-size="14.00">client 1</text>
</g>
<!-- indexes -->
<g id="node4" class="node">
<title>indexes</title>
<path fill="none" stroke="black" d="M526,-143.73C526,-145.53 500,-147 468,-147 436,-147 410,-145.53 410,-143.73 410,-143.73 410,-114.27 410,-114.27 410,-112.47 436,-111 468,-111 500,-111 526,-112.47 526,-114.27 526,-114.27 526,-143.73 526,-143.73"/>
<path fill="none" stroke="black" d="M526,-143.73C526,-141.92 500,-140.45 468,-140.45 436,-140.45 410,-141.92 410,-143.73"/>
<text text-anchor="middle" x="468" y="-125.3" font-family="Times,serif" font-size="14.00">SSE (indexes)</text>
</g>
<!-- client1&#45;&#45;indexes -->
<g id="edge1" class="edge">
<title>client1&#45;&#45;indexes</title>
<path fill="none" stroke="black" d="M57.15,-235.33C70.52,-245.05 88.69,-255 107,-255 107,-255 107,-255 367,-255 423.69,-255 453.35,-175.77 463.21,-142.97"/>
<text text-anchor="middle" x="237" y="-258.8" font-family="Times,serif" font-size="14.00">1. secure&#45;search(label)</text>
</g>
<!-- storage -->
<g id="node5" class="node">
<title>storage</title>
<path fill="none" stroke="black" d="M523,-89.73C523,-91.53 498.35,-93 468,-93 437.65,-93 413,-91.53 413,-89.73 413,-89.73 413,-60.27 413,-60.27 413,-58.47 437.65,-57 468,-57 498.35,-57 523,-58.47 523,-60.27 523,-60.27 523,-89.73 523,-89.73"/>
<path fill="none" stroke="black" d="M523,-89.73C523,-87.92 498.35,-86.45 468,-86.45 437.65,-86.45 413,-87.92 413,-89.73"/>
<text text-anchor="middle" x="468" y="-71.3" font-family="Times,serif" font-size="14.00">SE &#160;(storage)</text>
</g>
<!-- client1&#45;&#45;storage -->
<g id="edge2" class="edge">
<title>client1&#45;&#45;storage</title>
<path fill="none" stroke="black" d="M70.44,-208.11C81.98,-205.83 94.97,-204 107,-204 107,-204 107,-204 367,-204 413.89,-204 362.46,-136.7 394,-102 399.18,-96.3 405.67,-91.8 412.64,-88.25"/>
<text text-anchor="middle" x="237" y="-207.8" font-family="Times,serif" font-size="14.00">2. secure&#45;search(location)</text>
</g>
<!-- client2 -->
<g id="node2" class="node">
<title>client2</title>
<polygon fill="none" stroke="black" points="70,-157 0,-157 0,-121 70,-121 70,-157"/>
<text text-anchor="middle" x="35" y="-135.3" font-family="Times,serif" font-size="14.00">client 2</text>
</g>
<!-- client2&#45;&#45;indexes -->
<g id="edge4" class="edge">
<title>client2&#45;&#45;indexes</title>
<path fill="none" stroke="black" d="M70.4,-148.57C81.94,-151.03 94.94,-153 107,-153 107,-153 107,-153 367,-153 382.89,-153 399.82,-150.1 415.14,-146.31"/>
<text text-anchor="middle" x="237" y="-156.8" font-family="Times,serif" font-size="14.00">1. secure&#45;insert(location)</text>
</g>
<!-- client2&#45;&#45;storage -->
<g id="edge3" class="edge">
<title>client2&#45;&#45;storage</title>
<path fill="none" stroke="black" d="M41.56,-120.77C50.69,-94.99 71.47,-51 107,-51 107,-51 107,-51 367,-51 383.07,-51 400.2,-53.97 415.66,-57.81"/>
<text text-anchor="middle" x="237" y="-54.8" font-family="Times,serif" font-size="14.00">2. secure&#45;insert(data)</text>
</g>
<!-- client3 -->
<g id="node3" class="node">
<title>client3</title>
<polygon fill="none" stroke="black" points="70,-55 0,-55 0,-19 70,-19 70,-55"/>
<text text-anchor="middle" x="35" y="-33.3" font-family="Times,serif" font-size="14.00">client 3</text>
</g>
<!-- client3&#45;&#45;indexes -->
<g id="edge5" class="edge">
<title>client3&#45;&#45;indexes</title>
<path fill="none" stroke="black" d="M45.87,-55.45C57.64,-74.67 79.26,-102 107,-102 107,-102 107,-102 367,-102 385.34,-102 404.94,-106.29 421.89,-111.44"/>
<text text-anchor="middle" x="237" y="-105.8" font-family="Times,serif" font-size="14.00">1. secure&#45;search(label)</text>
</g>
<!-- client3&#45;&#45;storage -->
<g id="edge6" class="edge">
<title>client3&#45;&#45;storage</title>
<path fill="none" stroke="black" d="M58.16,-18.5C71.46,-9.25 89.21,0 107,0 107,0 107,0 367,0 404.76,0 437.39,-34.65 454.42,-56.84"/>
<text text-anchor="middle" x="237" y="-3.8" font-family="Times,serif" font-size="14.00">2. secure&#45;search(location)</text>
</g>
</g>
</svg>
