<?xml version="1.0" encoding="UTF-8" standalone="no"?>
<!DOCTYPE svg PUBLIC "-//W3C//DTD SVG 1.1//EN"
 "http://www.w3.org/Graphics/SVG/1.1/DTD/svg11.dtd">
<!-- Generated by graphviz version 7.0.1 (20221109.1506)
 -->
<!-- Title: DB_flow Pages: 1 -->
<svg width="544pt" height="192pt"
 viewBox="0.00 0.00 544.00 192.00" xmlns="http://www.w3.org/2000/svg" xmlns:xlink="http://www.w3.org/1999/xlink">
<g id="graph0" class="graph" transform="scale(1 1) rotate(0) translate(4 188)">
<title>DB_flow</title>
<polygon fill="white" stroke="none" points="-4,4 -4,-188 540,-188 540,4 -4,4"/>
<g id="clust1" class="cluster">
<title>cluster_server</title>
<polygon fill="none" stroke="black" points="380,-8 380,-176 528,-176 528,-8 380,-8"/>
<text text-anchor="middle" x="454" y="-160.8" font-family="Times,serif" font-size="14.00">Adversary Server</text>
</g>
<g id="clust2" class="cluster">
<title>cluster_DB</title>
<polygon fill="none" stroke="black" points="388,-16 388,-145 520,-145 520,-16 388,-16"/>
<text text-anchor="middle" x="454" y="-129.8" font-family="Times,serif" font-size="14.00">Database</text>
</g>
<!-- client -->
<g id="node1" class="node">
<title>client</title>
<polygon fill="none" stroke="black" points="56,-86 0,-86 0,-50 56,-50 56,-86"/>
<text text-anchor="middle" x="28" y="-64.3" font-family="Times,serif" font-size="14.00">client</text>
</g>
<!-- indexes -->
<g id="node2" class="node">
<title>indexes</title>
<path fill="none" stroke="black" d="M512,-110.73C512,-112.53 486,-114 454,-114 422,-114 396,-112.53 396,-110.73 396,-110.73 396,-81.27 396,-81.27 396,-79.47 422,-78 454,-78 486,-78 512,-79.47 512,-81.27 512,-81.27 512,-110.73 512,-110.73"/>
<path fill="none" stroke="black" d="M512,-110.73C512,-108.92 486,-107.45 454,-107.45 422,-107.45 396,-108.92 396,-110.73"/>
<text text-anchor="middle" x="454" y="-92.3" font-family="Times,serif" font-size="14.00">SSE (indexes)</text>
</g>
<!-- client&#45;&#45;indexes -->
<g id="edge1" class="edge">
<title>client&#45;&#45;indexes</title>
<path fill="none" stroke="black" d="M56.32,-85.1C67.3,-90.46 80.34,-95 93,-95 93,-95 93,-95 353,-95 366.8,-95 381.68,-95.1 395.63,-95.23"/>
<text text-anchor="middle" x="223" y="-98.8" font-family="Times,serif" font-size="14.00">1. secure&#45;search(label)</text>
</g>
<!-- storage -->
<g id="node3" class="node">
<title>storage</title>
<path fill="none" stroke="black" d="M509,-56.73C509,-58.53 484.35,-60 454,-60 423.65,-60 399,-58.53 399,-56.73 399,-56.73 399,-27.27 399,-27.27 399,-25.47 423.65,-24 454,-24 484.35,-24 509,-25.47 509,-27.27 509,-27.27 509,-56.73 509,-56.73"/>
<path fill="none" stroke="black" d="M509,-56.73C509,-54.92 484.35,-53.45 454,-53.45 423.65,-53.45 399,-54.92 399,-56.73"/>
<text text-anchor="middle" x="454" y="-38.3" font-family="Times,serif" font-size="14.00">SE &#160;(storage)</text>
</g>
<!-- client&#45;&#45;storage -->
<g id="edge2" class="edge">
<title>client&#45;&#45;storage</title>
<path fill="none" stroke="black" d="M56.46,-52.17C67.46,-47.21 80.47,-43 93,-43 93,-43 93,-43 353,-43 367.76,-43 383.74,-42.89 398.51,-42.74"/>
<text text-anchor="middle" x="223" y="-46.8" font-family="Times,serif" font-size="14.00">2. secure&#45;search(location)</text>
</g>
</g>
</svg>
