<?xml version="1.0" encoding="UTF-8" standalone="no"?>
<!DOCTYPE svg PUBLIC "-//W3C//DTD SVG 1.1//EN"
 "http://www.w3.org/Graphics/SVG/1.1/DTD/svg11.dtd">
<!-- Generated by graphviz version 7.0.1 (20221109.1506)
 -->
<!-- Title: DB_flow Pages: 1 -->
<svg width="583pt" height="192pt"
 viewBox="0.00 0.00 583.00 192.00" xmlns="http://www.w3.org/2000/svg" xmlns:xlink="http://www.w3.org/1999/xlink">
<g id="graph0" class="graph" transform="scale(1 1) rotate(0) translate(4 188)">
<title>DB_flow</title>
<polygon fill="white" stroke="none" points="-4,4 -4,-188 579,-188 579,4 -4,4"/>
<g id="clust1" class="cluster">
<title>cluster_server</title>
<polygon fill="none" stroke="black" points="419,-8 419,-176 567,-176 567,-8 419,-8"/>
<text text-anchor="middle" x="493" y="-160.8" font-family="Times,serif" font-size="14.00">Adversary Server</text>
</g>
<g id="clust2" class="cluster">
<title>cluster_DB</title>
<polygon fill="none" stroke="black" points="427,-16 427,-145 559,-145 559,-16 427,-16"/>
<text text-anchor="middle" x="493" y="-129.8" font-family="Times,serif" font-size="14.00">Database</text>
</g>
<!-- client -->
<g id="node1" class="node">
<title>client</title>
<polygon fill="none" stroke="black" points="56,-86 0,-86 0,-50 56,-50 56,-86"/>
<text text-anchor="middle" x="28" y="-64.3" font-family="Times,serif" font-size="14.00">client</text>
</g>
<!-- indexes -->
<g id="node2" class="node">
<title>indexes</title>
<path fill="none" stroke="black" d="M551,-110.73C551,-112.53 525,-114 493,-114 461,-114 435,-112.53 435,-110.73 435,-110.73 435,-81.27 435,-81.27 435,-79.47 461,-78 493,-78 525,-78 551,-79.47 551,-81.27 551,-81.27 551,-110.73 551,-110.73"/>
<path fill="none" stroke="black" d="M551,-110.73C551,-108.92 525,-107.45 493,-107.45 461,-107.45 435,-108.92 435,-110.73"/>
<text text-anchor="middle" x="493" y="-92.3" font-family="Times,serif" font-size="14.00">SSE (indexes)</text>
</g>
<!-- client&#45;&#45;indexes -->
<g id="edge2" class="edge">
<title>client&#45;&#45;indexes</title>
<path fill="none" stroke="black" d="M56.32,-85.1C67.3,-90.46 80.34,-95 93,-95 93,-95 93,-95 392,-95 405.8,-95 420.68,-95.1 434.63,-95.23"/>
<text text-anchor="middle" x="242.5" y="-98.8" font-family="Times,serif" font-size="14.00">2. secure&#45;insert(label, location)</text>
</g>
<!-- storage -->
<g id="node3" class="node">
<title>storage</title>
<path fill="none" stroke="black" d="M548,-56.73C548,-58.53 523.35,-60 493,-60 462.65,-60 438,-58.53 438,-56.73 438,-56.73 438,-27.27 438,-27.27 438,-25.47 462.65,-24 493,-24 523.35,-24 548,-25.47 548,-27.27 548,-27.27 548,-56.73 548,-56.73"/>
<path fill="none" stroke="black" d="M548,-56.73C548,-54.92 523.35,-53.45 493,-53.45 462.65,-53.45 438,-54.92 438,-56.73"/>
<text text-anchor="middle" x="493" y="-38.3" font-family="Times,serif" font-size="14.00">SE &#160;(storage)</text>
</g>
<!-- client&#45;&#45;storage -->
<g id="edge1" class="edge">
<title>client&#45;&#45;storage</title>
<path fill="none" stroke="black" d="M56.46,-52.17C67.46,-47.21 80.47,-43 93,-43 93,-43 93,-43 392,-43 406.76,-43 422.74,-42.89 437.51,-42.74"/>
<text text-anchor="middle" x="242.5" y="-46.8" font-family="Times,serif" font-size="14.00">1. secure&#45;insert(data)</text>
</g>
</g>
</svg>
