<?xml version="1.0" encoding="UTF-8" standalone="no"?>
<!DOCTYPE svg PUBLIC "-//W3C//DTD SVG 1.1//EN"
 "http://www.w3.org/Graphics/SVG/1.1/DTD/svg11.dtd">
<!-- Generated by graphviz version 7.0.1 (20221109.1506)
 -->
<!-- Title: DB_flow Pages: 1 -->
<svg width="515pt" height="192pt"
 viewBox="0.00 0.00 515.00 192.00" xmlns="http://www.w3.org/2000/svg" xmlns:xlink="http://www.w3.org/1999/xlink">
<g id="graph0" class="graph" transform="scale(1 1) rotate(0) translate(4 188)">
<title>DB_flow</title>
<polygon fill="white" stroke="none" points="-4,4 -4,-188 511,-188 511,4 -4,4"/>
<g id="clust1" class="cluster">
<title>cluster_server</title>
<polygon fill="none" stroke="black" points="365,-8 365,-176 507,-176 507,-8 365,-8"/>
<text text-anchor="middle" x="436" y="-160.8" font-family="Times,serif" font-size="14.00">Adversary Server</text>
</g>
<g id="clust2" class="cluster">
<title>cluster_DB</title>
<polygon fill="none" stroke="black" points="392,-16 392,-145 479,-145 479,-16 392,-16"/>
<text text-anchor="middle" x="435.5" y="-129.8" font-family="Times,serif" font-size="14.00">Database</text>
</g>
<!-- client -->
<g id="node1" class="node">
<title>client</title>
<polygon fill="none" stroke="black" points="56,-86 0,-86 0,-50 56,-50 56,-86"/>
<text text-anchor="middle" x="28" y="-64.3" font-family="Times,serif" font-size="14.00">client</text>
</g>
<!-- indexes -->
<g id="node2" class="node">
<title>indexes</title>
<path fill="none" stroke="black" d="M471,-110.73C471,-112.53 455.09,-114 435.5,-114 415.91,-114 400,-112.53 400,-110.73 400,-110.73 400,-81.27 400,-81.27 400,-79.47 415.91,-78 435.5,-78 455.09,-78 471,-79.47 471,-81.27 471,-81.27 471,-110.73 471,-110.73"/>
<path fill="none" stroke="black" d="M471,-110.73C471,-108.92 455.09,-107.45 435.5,-107.45 415.91,-107.45 400,-108.92 400,-110.73"/>
<text text-anchor="middle" x="435.5" y="-92.3" font-family="Times,serif" font-size="14.00">indexes</text>
</g>
<!-- client&#45;&#45;indexes -->
<g id="edge1" class="edge">
<title>client&#45;&#45;indexes</title>
<path fill="none" stroke="black" d="M56.32,-85.1C67.3,-90.46 80.34,-95 93,-95 93,-95 93,-95 338,-95 358.44,-95 381.31,-95.23 399.66,-95.46"/>
<text text-anchor="middle" x="215.5" y="-98.8" font-family="Times,serif" font-size="14.00">1. get(label) &#45;&gt; location</text>
</g>
<!-- storage -->
<g id="node3" class="node">
<title>storage</title>
<path fill="none" stroke="black" d="M471,-56.73C471,-58.53 455.09,-60 435.5,-60 415.91,-60 400,-58.53 400,-56.73 400,-56.73 400,-27.27 400,-27.27 400,-25.47 415.91,-24 435.5,-24 455.09,-24 471,-25.47 471,-27.27 471,-27.27 471,-56.73 471,-56.73"/>
<path fill="none" stroke="black" d="M471,-56.73C471,-54.92 455.09,-53.45 435.5,-53.45 415.91,-53.45 400,-54.92 400,-56.73"/>
<text text-anchor="middle" x="435.5" y="-38.3" font-family="Times,serif" font-size="14.00">storage</text>
</g>
<!-- client&#45;&#45;storage -->
<g id="edge2" class="edge">
<title>client&#45;&#45;storage</title>
<path fill="none" stroke="black" d="M56.46,-52.17C67.46,-47.21 80.47,-43 93,-43 93,-43 93,-43 338,-43 358.44,-43 381.31,-42.77 399.66,-42.54"/>
<text text-anchor="middle" x="215.5" y="-46.8" font-family="Times,serif" font-size="14.00">2. get(location) &#45;&gt; data</text>
</g>
</g>
</svg>
